# This file uses centimeters as units for non-parametric coordinates.

mtllib IsraSwordGem.mtl
g default
v 0.007055 0.237877 0.052492
v -0.033655 0.293203 0.062063
v 0.037776 0.299129 0.057506
v 0.061363 0.254199 0.005920
v 0.004508 0.220505 -0.021405
v -0.054216 0.244611 0.013293
v -0.061363 0.310025 -0.005919
v -0.004508 0.343718 0.021405
v 0.054216 0.319612 -0.013293
v 0.033655 0.271020 -0.062063
v -0.037776 0.265095 -0.057506
v -0.007055 0.326346 -0.052492
vt 0.929959 0.139575
vt 0.857970 0.104875
vt 0.864934 0.185558
vt 0.910776 0.078234
vt 0.950376 0.142452
vt 0.922044 0.208782
vt 0.805564 0.152636
vt 0.833896 0.086306
vt 0.891006 0.109530
vt 0.897970 0.190213
vt 0.845164 0.216854
vt 0.825981 0.155513
vn 0.072930 -0.117655 0.990373
vn 0.072930 -0.117655 0.990373
vn 0.072930 -0.117655 0.990373
vn 0.664663 -0.385747 0.639862
vn 0.664663 -0.385747 0.639862
vn 0.664663 -0.385747 0.639862
vn 0.430167 -0.881983 0.192517
vn 0.430167 -0.881983 0.192517
vn 0.430167 -0.881983 0.192517
vn -0.250335 -0.940508 0.229732
vn -0.250335 -0.940508 0.229732
vn -0.250335 -0.940508 0.229732
vn -0.506268 -0.494723 0.706358
vn -0.506268 -0.494723 0.706358
vn -0.506268 -0.494723 0.706358
vn -0.002424 0.627849 0.778331
vn -0.002424 0.627849 0.778331
vn -0.002424 0.627849 0.778331
vn 0.944602 0.183193 0.272338
vn 0.944602 0.183193 0.272338
vn 0.944602 0.183193 0.272338
vn 0.603103 -0.681547 -0.414440
vn 0.603103 -0.681547 -0.414440
vn 0.603103 -0.681547 -0.414440
vn -0.524179 -0.777816 -0.346756
vn -0.524179 -0.777816 -0.346756
vn -0.524179 -0.777816 -0.346756
vn -0.925085 0.010425 0.379616
vn -0.925085 0.010425 0.379616
vn -0.925085 0.010425 0.379616
vn -0.603095 0.681549 0.414448
vn -0.603095 0.681549 0.414448
vn -0.603095 0.681549 0.414448
vn 0.524174 0.777818 0.346757
vn 0.524174 0.777818 0.346757
vn 0.524174 0.777818 0.346757
vn 0.925086 -0.010426 -0.379615
vn 0.925086 -0.010426 -0.379615
vn 0.925086 -0.010426 -0.379615
vn 0.002431 -0.627841 -0.778338
vn 0.002431 -0.627841 -0.778338
vn 0.002431 -0.627841 -0.778338
vn -0.944604 -0.183190 -0.272331
vn -0.944604 -0.183190 -0.272331
vn -0.944604 -0.183190 -0.272331
vn -0.430167 0.881985 -0.192506
vn -0.430167 0.881985 -0.192506
vn -0.430167 0.881985 -0.192506
vn 0.250338 0.940508 -0.229728
vn 0.250338 0.940508 -0.229728
vn 0.250338 0.940508 -0.229728
vn 0.506274 0.494730 -0.706349
vn 0.506273 0.494730 -0.706349
vn 0.506273 0.494730 -0.706349
vn -0.072944 0.117654 -0.990372
vn -0.072944 0.117654 -0.990372
vn -0.072944 0.117654 -0.990372
vn -0.664654 0.385742 -0.639874
vn -0.664654 0.385742 -0.639874
vn -0.664654 0.385742 -0.639874
s off
g IsraSwordGem
usemtl lambert9SG
f 1/1/1 3/2/2 2/3/3
f 1/1/4 4/4/5 3/2/6
f 1/1/7 5/5/8 4/4/9
f 1/1/10 6/6/11 5/5/12
f 1/1/13 2/3/14 6/6/15
f 2/3/16 3/2/17 8/7/18
f 3/2/19 4/4/20 9/8/21
f 4/4/22 5/5/23 10/9/24
f 5/5/25 6/6/26 11/10/27
f 6/6/28 2/3/29 7/11/30
f 2/3/31 8/7/32 7/11/33
f 3/2/34 9/8/35 8/7/36
f 4/4/37 10/9/38 9/8/39
f 5/5/40 11/10/41 10/9/42
f 6/6/43 7/11/44 11/10/45
f 7/11/46 8/7/47 12/12/48
f 8/7/49 9/8/50 12/12/51
f 9/8/52 10/9/53 12/12/54
f 10/9/55 11/10/56 12/12/57
f 11/10/58 7/11/59 12/12/60
